<svg className="bg" viewBox="0 0 900 600" xmlns="http://www.w3.org/2000/svg" version="1.1">
  <g> <path id="blob1" d="M0 211L16.7 193C33.3 175 66.7 139 100 136C133.3 133 166.7 163 200 166C233.3 169 266.7 145 300 133C333.3 121 366.7 121 400 117C433.3 113 466.7 105 500 128C533.3 151 566.7 205 600 204C633.3 203 666.7 147 700 133C733.3 119 766.7 147 800 161C833.3 175 866.7 175 883.3 175L900 175L900 0L883.3 0C866.7 0 833.3 0 800 0C766.7 0 733.3 0 700 0C666.7 0 633.3 0 600 0C566.7 0 533.3 0 500 0C466.7 0 433.3 0 400 0C366.7 0 333.3 0 300 0C266.7 0 233.3 0 200 0C166.7 0 133.3 0 100 0C66.7 0 33.3 0 16.7 0L0 0Z"
      fill="#75c337"></path>
    <path d="M0 313L16.7 290C33.3 267 66.7 221 100 217C133.3 213 166.7 251 200 254C233.3 257 266.7 225 300 214C333.3 203 366.7 213 400 214C433.3 215 466.7 207 500 228C533.3 249 566.7 299 600 298C633.3 297 666.7 245 700 228C733.3 211 766.7 229 800 242C833.3 255 866.7 263 883.3 267L900 271L900 173L883.3 173C866.7 173 833.3 173 800 159C766.7 145 733.3 117 700 131C666.7 145 633.3 201 600 202C566.7 203 533.3 149 500 126C466.7 103 433.3 111 400 115C366.7 119 333.3 119 300 131C266.7 143 233.3 167 200 164C166.7 161 133.3 131 100 134C66.7 137 33.3 173 16.7 191L0 209Z"
      fill="#92d03a"></path>
    <path d="M0 421L16.7 412C33.3 403 66.7 385 100 375C133.3 365 166.7 363 200 367C233.3 371 266.7 381 300 387C333.3 393 366.7 395 400 390C433.3 385 466.7 373 500 380C533.3 387 566.7 413 600 424C633.3 435 666.7 431 700 416C733.3 401 766.7 375 800 380C833.3 385 866.7 421 883.3 439L900 457L900 269L883.3 265C866.7 261 833.3 253 800 240C766.7 227 733.3 209 700 226C666.7 243 633.3 295 600 296C566.7 297 533.3 247 500 226C466.7 205 433.3 213 400 212C366.7 211 333.3 201 300 212C266.7 223 233.3 255 200 252C166.7 249 133.3 211 100 215C66.7 219 33.3 265 16.7 288L0 311Z"
      fill="#aedd3e"></path>
    <path d="M0 499L16.7 491C33.3 483 66.7 467 100 462C133.3 457 166.7 463 200 467C233.3 471 266.7 473 300 480C333.3 487 366.7 499 400 497C433.3 495 466.7 479 500 486C533.3 493 566.7 523 600 527C633.3 531 666.7 509 700 491C733.3 473 766.7 459 800 468C833.3 477 866.7 509 883.3 525L900 541L900 455L883.3 437C866.7 419 833.3 383 800 378C766.7 373 733.3 399 700 414C666.7 429 633.3 433 600 422C566.7 411 533.3 385 500 378C466.7 371 433.3 383 400 388C366.7 393 333.3 391 300 385C266.7 379 233.3 369 200 365C166.7 361 133.3 363 100 373C66.7 383 33.3 401 16.7 410L0 419Z"
      fill="#cbe944"></path>
    <path d="M0 601L16.7 601C33.3 601 66.7 601 100 601C133.3 601 166.7 601 200 601C233.3 601 266.7 601 300 601C333.3 601 366.7 601 400 601C433.3 601 466.7 601 500 601C533.3 601 566.7 601 600 601C633.3 601 666.7 601 700 601C733.3 601 766.7 601 800 601C833.3 601 866.7 601 883.3 601L900 601L900 539L883.3 523C866.7 507 833.3 475 800 466C766.7 457 733.3 471 700 489C666.7 507 633.3 529 600 525C566.7 521 533.3 491 500 484C466.7 477 433.3 493 400 495C366.7 497 333.3 485 300 478C266.7 471 233.3 469 200 465C166.7 461 133.3 455 100 460C66.7 465 33.3 481 16.7 489L0 497Z"
      fill="#e8f54b"></path>
  </g></svg>